# This file uses centimeters as units for non-parametric coordinates.

mtllib InteriorWindowFrame.mtl
g default
v -0.349758 -0.251176 -4.714787
v -0.416908 13.062200 -4.714787
v -0.349758 -0.251175 -5.145489
v -0.416908 13.062200 -5.145489
v 0.416908 -0.243744 -5.145489
v 0.349758 13.069632 -5.145489
v 0.416908 -0.243744 -4.714787
v 0.349758 13.069632 -4.714787
v -4.801997 13.134876 -4.669976
v 4.801997 13.134876 -4.669976
v -4.801997 13.134876 -5.100678
v 4.801997 13.134876 -5.100678
v -4.801997 12.368191 -5.100678
v 4.801997 12.368191 -5.100678
v -4.801997 12.368191 -4.669976
v 4.801997 12.368191 -4.669976
v -4.898365 13.077669 -3.694531
v 4.898365 13.077669 -3.694531
v -4.898365 13.379501 -3.694531
v 4.898365 13.379501 -3.694531
v -4.898365 13.379501 -5.645421
v 4.898365 13.379501 -5.645421
v -4.898365 13.077669 -5.645421
v 4.898365 13.077669 -5.645421
v 4.940934 -0.299108 -4.182558
v 4.940934 13.163570 -4.182558
v 4.510232 -0.299108 -4.182558
v 4.510232 13.163570 -4.182558
v 4.510232 -0.299108 -5.257971
v 4.510232 13.163570 -5.257971
v 4.940934 -0.299108 -5.257971
v 4.940934 13.163570 -5.257971
v -4.491210 -0.201844 -4.132269
v -4.491210 13.260834 -4.132269
v -4.921911 -0.201844 -4.132269
v -4.921911 13.260834 -4.132269
v -4.921911 -0.201844 -5.207682
v -4.921911 13.260834 -5.207682
v -4.491210 -0.201844 -5.207682
v -4.491210 13.260834 -5.207682
v -4.801997 6.932344 -4.669976
v 4.801997 6.932344 -4.669976
v -4.801997 6.932344 -5.100678
v 4.801997 6.932344 -5.100678
v -4.801997 6.165660 -5.100678
v 4.801997 6.165660 -5.100678
v -4.801997 6.165660 -4.669976
v 4.801997 6.165660 -4.669976
v -4.505903 -0.029751 -3.694531
v 4.505903 -0.029751 -3.694531
v -4.505903 0.272082 -3.694531
v 4.505903 0.272082 -3.694531
v -4.505903 0.272082 -5.645421
v 4.505903 0.272082 -5.645421
v -4.505903 -0.029751 -5.645421
v 4.505903 -0.029751 -5.645421
vt 0.103392 0.138404
vt 0.736362 0.127796
vt 0.103735 0.158881
vt 0.736705 0.148273
vt 0.104516 0.195330
vt 0.737486 0.184721
vt 0.104859 0.215806
vt 0.737829 0.205198
vt 0.105300 0.252260
vt 0.738270 0.241652
vt 0.772814 0.127185
vt 0.773157 0.147662
vt 0.066941 0.139015
vt 0.067284 0.159492
vt 0.072378 0.370087
vt 0.607924 0.363575
vt 0.608217 0.387592
vt 0.072670 0.394104
vt 0.608736 0.430344
vt 0.073190 0.436856
vt 0.609028 0.454362
vt 0.073482 0.460874
vt 0.609548 0.497114
vt 0.074002 0.503626
vt 0.650677 0.363055
vt 0.650969 0.387072
vt 0.029626 0.370606
vt 0.029918 0.394624
vt 0.109982 0.722540
vt 0.473623 0.721839
vt 0.473645 0.733043
vt 0.110003 0.733743
vt 0.473784 0.805457
vt 0.110143 0.806158
vt 0.473806 0.816661
vt 0.110164 0.817361
vt 0.473945 0.889075
vt 0.110304 0.889776
vt 0.546037 0.721700
vt 0.546059 0.732904
vt 0.037567 0.722679
vt 0.037589 0.733883
vt 0.943877 0.073962
vt 0.935897 0.640928
vt 0.917759 0.640673
vt 0.925738 0.073706
vt 0.872469 0.640035
vt 0.880449 0.073069
vt 0.854330 0.639780
vt 0.862310 0.072814
vt 0.809041 0.639142
vt 0.817020 0.072176
vt 0.935260 0.686218
vt 0.917121 0.685962
vt 0.944514 0.028672
vt 0.926376 0.028416
vt 0.943877 0.073962
vt 0.935897 0.640928
vt 0.917759 0.640673
vt 0.925738 0.073706
vt 0.872469 0.640035
vt 0.880448 0.073069
vt 0.854330 0.639780
vt 0.862310 0.072814
vt 0.809041 0.639143
vt 0.817020 0.072176
vt 0.935260 0.686218
vt 0.917121 0.685962
vt 0.944514 0.028672
vt 0.926376 0.028416
vt 0.072378 0.370086
vt 0.607924 0.363575
vt 0.608216 0.387592
vt 0.072670 0.394104
vt 0.608736 0.430344
vt 0.073190 0.436856
vt 0.609028 0.454362
vt 0.073482 0.460873
vt 0.609548 0.497114
vt 0.074002 0.503626
vt 0.650677 0.363055
vt 0.650969 0.387072
vt 0.029626 0.370606
vt 0.029918 0.394623
vt 0.779421 0.554739
vt 0.778990 0.932930
vt 0.766324 0.932916
vt 0.766755 0.554725
vt 0.684452 0.932822
vt 0.684883 0.554632
vt 0.671786 0.932808
vt 0.672216 0.554617
vt 0.589914 0.932715
vt 0.590345 0.554524
vt 0.778897 1.014802
vt 0.766230 1.014787
vt 0.779515 0.472868
vt 0.766848 0.472854
vn -0.999987 -0.005044 0.000000
vn -0.999987 -0.005044 0.000000
vn -0.999987 -0.005044 0.000000
vn -0.999987 -0.005044 0.000000
vn 0.000000 0.000000 -1.000000
vn 0.000000 0.000000 -1.000000
vn 0.000000 0.000000 -1.000000
vn 0.000000 0.000000 -1.000000
vn 0.999987 0.005044 0.000000
vn 0.999987 0.005044 0.000000
vn 0.999987 0.005044 0.000000
vn 0.999987 0.005044 0.000000
vn -0.000000 0.000000 1.000000
vn -0.000000 0.000000 1.000000
vn -0.000000 0.000000 1.000000
vn -0.000000 0.000000 1.000000
vn -0.009693 0.999953 0.000000
vn -0.009693 0.999953 0.000000
vn -0.009693 0.999953 0.000000
vn -0.009693 0.999953 0.000000
vn 0.009692 -0.999953 -0.000000
vn 0.009692 -0.999953 -0.000000
vn 0.009692 -0.999953 -0.000000
vn 0.009692 -0.999953 -0.000000
vn 0.000000 1.000000 0.000000
vn 0.000000 1.000000 0.000000
vn 0.000000 1.000000 0.000000
vn 0.000000 1.000000 0.000000
vn 0.000000 0.000000 -1.000000
vn 0.000000 0.000000 -1.000000
vn 0.000000 0.000000 -1.000000
vn 0.000000 0.000000 -1.000000
vn 0.000000 -1.000000 0.000000
vn 0.000000 -1.000000 0.000000
vn 0.000000 -1.000000 0.000000
vn 0.000000 -1.000000 0.000000
vn 0.000000 0.000000 1.000000
vn 0.000000 0.000000 1.000000
vn 0.000000 0.000000 1.000000
vn 0.000000 0.000000 1.000000
vn 1.000000 0.000000 0.000000
vn 1.000000 0.000000 0.000000
vn 1.000000 0.000000 0.000000
vn 1.000000 0.000000 0.000000
vn -1.000000 0.000000 0.000000
vn -1.000000 0.000000 0.000000
vn -1.000000 0.000000 0.000000
vn -1.000000 0.000000 0.000000
vn 0.000000 0.000000 1.000000
vn 0.000000 0.000000 1.000000
vn 0.000000 0.000000 1.000000
vn 0.000000 0.000000 1.000000
vn 0.000000 1.000000 0.000000
vn 0.000000 1.000000 0.000000
vn 0.000000 1.000000 0.000000
vn 0.000000 1.000000 0.000000
vn 0.000000 0.000000 -1.000000
vn 0.000000 0.000000 -1.000000
vn 0.000000 0.000000 -1.000000
vn 0.000000 0.000000 -1.000000
vn 0.000000 -1.000000 0.000000
vn 0.000000 -1.000000 0.000000
vn 0.000000 -1.000000 0.000000
vn 0.000000 -1.000000 0.000000
vn 1.000000 0.000000 0.000000
vn 1.000000 0.000000 0.000000
vn 1.000000 0.000000 0.000000
vn 1.000000 0.000000 0.000000
vn -1.000000 0.000000 0.000000
vn -1.000000 0.000000 0.000000
vn -1.000000 0.000000 0.000000
vn -1.000000 0.000000 0.000000
vn 0.000000 0.000000 1.000000
vn 0.000000 0.000000 1.000000
vn 0.000000 0.000000 1.000000
vn 0.000000 0.000000 1.000000
vn -1.000000 0.000000 0.000000
vn -1.000000 0.000000 0.000000
vn -1.000000 0.000000 0.000000
vn -1.000000 0.000000 0.000000
vn 0.000000 0.000000 -1.000000
vn 0.000000 0.000000 -1.000000
vn 0.000000 0.000000 -1.000000
vn 0.000000 0.000000 -1.000000
vn 1.000000 0.000000 0.000000
vn 1.000000 0.000000 0.000000
vn 1.000000 0.000000 0.000000
vn 1.000000 0.000000 0.000000
vn 0.000000 1.000000 0.000000
vn 0.000000 1.000000 0.000000
vn 0.000000 1.000000 0.000000
vn 0.000000 1.000000 0.000000
vn 0.000000 -1.000000 0.000000
vn 0.000000 -1.000000 0.000000
vn 0.000000 -1.000000 0.000000
vn 0.000000 -1.000000 0.000000
vn 0.000000 0.000000 1.000000
vn 0.000000 0.000000 1.000000
vn 0.000000 0.000000 1.000000
vn 0.000000 0.000000 1.000000
vn -1.000000 0.000000 0.000000
vn -1.000000 0.000000 0.000000
vn -1.000000 0.000000 0.000000
vn -1.000000 0.000000 0.000000
vn 0.000000 0.000000 -1.000000
vn 0.000000 0.000000 -1.000000
vn 0.000000 0.000000 -1.000000
vn 0.000000 0.000000 -1.000000
vn 1.000000 0.000000 0.000000
vn 1.000000 0.000000 0.000000
vn 1.000000 0.000000 0.000000
vn 1.000000 0.000000 0.000000
vn 0.000000 1.000000 0.000000
vn 0.000000 1.000000 0.000000
vn 0.000000 1.000000 0.000000
vn 0.000000 1.000000 0.000000
vn 0.000000 -1.000000 0.000000
vn 0.000000 -1.000000 0.000000
vn 0.000000 -1.000000 0.000000
vn 0.000000 -1.000000 0.000000
vn 0.000000 1.000000 0.000000
vn 0.000000 1.000000 0.000000
vn 0.000000 1.000000 0.000000
vn 0.000000 1.000000 0.000000
vn 0.000000 0.000000 -1.000000
vn 0.000000 0.000000 -1.000000
vn 0.000000 0.000000 -1.000000
vn 0.000000 0.000000 -1.000000
vn 0.000000 -1.000000 0.000000
vn 0.000000 -1.000000 0.000000
vn 0.000000 -1.000000 0.000000
vn 0.000000 -1.000000 0.000000
vn 0.000000 0.000000 1.000000
vn 0.000000 0.000000 1.000000
vn 0.000000 0.000000 1.000000
vn 0.000000 0.000000 1.000000
vn 1.000000 0.000000 0.000000
vn 1.000000 0.000000 0.000000
vn 1.000000 0.000000 0.000000
vn 1.000000 0.000000 0.000000
vn -1.000000 0.000000 0.000000
vn -1.000000 0.000000 0.000000
vn -1.000000 0.000000 0.000000
vn -1.000000 0.000000 0.000000
vn 0.000000 0.000000 1.000000
vn 0.000000 0.000000 1.000000
vn 0.000000 0.000000 1.000000
vn 0.000000 0.000000 1.000000
vn 0.000000 1.000000 0.000000
vn 0.000000 1.000000 0.000000
vn 0.000000 1.000000 0.000000
vn 0.000000 1.000000 0.000000
vn 0.000000 0.000000 -1.000000
vn 0.000000 0.000000 -1.000000
vn 0.000000 0.000000 -1.000000
vn 0.000000 0.000000 -1.000000
vn 0.000000 -1.000000 0.000000
vn 0.000000 -1.000000 0.000000
vn 0.000000 -1.000000 0.000000
vn 0.000000 -1.000000 0.000000
vn 1.000000 0.000000 0.000000
vn 1.000000 0.000000 0.000000
vn 1.000000 0.000000 0.000000
vn 1.000000 0.000000 0.000000
vn -1.000000 0.000000 0.000000
vn -1.000000 0.000000 0.000000
vn -1.000000 0.000000 0.000000
vn -1.000000 0.000000 0.000000
s off
g InteriorWindowFrame
usemtl initialShadingGroup
f 1/1/1 2/2/2 4/4/3 3/3/4
f 3/3/5 4/4/6 6/6/7 5/5/8
f 5/5/9 6/6/10 8/8/11 7/7/12
f 7/7/13 8/8/14 2/10/15 1/9/16
f 2/2/17 8/11/18 6/12/19 4/4/20
f 7/13/21 1/1/22 3/3/23 5/14/24
f 9/15/25 10/16/26 12/17/27 11/18/28
f 11/18/29 12/17/30 14/19/31 13/20/32
f 13/20/33 14/19/34 16/21/35 15/22/36
f 15/22/37 16/21/38 10/23/39 9/24/40
f 10/16/41 16/25/42 14/26/43 12/17/44
f 15/27/45 9/15/46 11/18/47 13/28/48
f 17/29/49 18/30/50 20/31/51 19/32/52
f 19/32/53 20/31/54 22/33/55 21/34/56
f 21/34/57 22/33/58 24/35/59 23/36/60
f 23/36/61 24/35/62 18/37/63 17/38/64
f 18/30/65 24/39/66 22/40/67 20/31/68
f 23/41/69 17/29/70 19/32/71 21/42/72
f 25/43/73 26/44/74 28/45/75 27/46/76
f 27/46/77 28/45/78 30/47/79 29/48/80
f 29/48/81 30/47/82 32/49/83 31/50/84
f 31/50/85 32/49/86 26/51/87 25/52/88
f 26/44/89 32/53/90 30/54/91 28/45/92
f 31/55/93 25/43/94 27/46/95 29/56/96
f 33/57/97 34/58/98 36/59/99 35/60/100
f 35/60/101 36/59/102 38/61/103 37/62/104
f 37/62/105 38/61/106 40/63/107 39/64/108
f 39/64/109 40/63/110 34/65/111 33/66/112
f 34/58/113 40/67/114 38/68/115 36/59/116
f 39/69/117 33/57/118 35/60/119 37/70/120
f 41/71/121 42/72/122 44/73/123 43/74/124
f 43/74/125 44/73/126 46/75/127 45/76/128
f 45/76/129 46/75/130 48/77/131 47/78/132
f 47/78/133 48/77/134 42/79/135 41/80/136
f 42/72/137 48/81/138 46/82/139 44/73/140
f 47/83/141 41/71/142 43/74/143 45/84/144
f 49/85/145 50/86/146 52/87/147 51/88/148
f 51/88/149 52/87/150 54/89/151 53/90/152
f 53/90/153 54/89/154 56/91/155 55/92/156
f 55/92/157 56/91/158 50/93/159 49/94/160
f 50/86/161 56/95/162 54/96/163 52/87/164
f 55/97/165 49/85/166 51/88/167 53/98/168
