# This file uses centimeters as units for non-parametric coordinates.

mtllib Pot.mtl
g default
v 0.419531 0.000000 -0.242217
v 0.242217 0.000000 -0.419531
v 0.000000 0.000000 -0.484433
v -0.242217 0.000000 -0.419531
v -0.419531 0.000000 -0.242217
v -0.484433 0.000000 0.000000
v -0.419531 0.000000 0.242217
v -0.242217 0.000000 0.419531
v 0.000000 0.000000 0.484433
v 0.242217 0.000000 0.419531
v 0.419531 0.000000 0.242217
v 0.484433 0.000000 0.000000
v 0.599510 0.963502 -0.346128
v 0.346127 0.963502 -0.599510
v 0.000000 0.963502 -0.692255
v -0.346127 0.963502 -0.599510
v -0.599510 0.963502 -0.346128
v -0.692255 0.963502 0.000000
v -0.599510 0.963502 0.346127
v -0.346127 0.963502 0.599510
v 0.000000 0.963502 0.692255
v 0.346127 0.963502 0.599510
v 0.599510 0.963502 0.346127
v 0.692255 0.963502 0.000000
v 0.000000 0.000000 0.000000
v 0.455527 0.157425 -0.262999
v 0.262999 0.157425 -0.455527
v 0.000000 0.157425 -0.525997
v -0.262999 0.157425 -0.455527
v -0.455527 0.157425 -0.262999
v -0.525997 0.157425 0.000000
v -0.455527 0.157425 0.262998
v -0.262999 0.157425 0.455527
v 0.000000 0.157425 0.525997
v 0.262999 0.157425 0.455527
v 0.455527 0.157425 0.262998
v 0.525997 0.157425 0.000000
v 0.501852 0.000000 -0.289745
v 0.289744 0.000000 -0.501852
v 0.314604 0.192700 -0.544911
v 0.544911 0.192700 -0.314604
v 0.000000 0.000000 -0.579489
v 0.000000 0.192700 -0.629209
v -0.289744 0.000000 -0.501852
v -0.314604 0.192700 -0.544911
v -0.501852 0.000000 -0.289745
v -0.544911 0.192700 -0.314604
v -0.579489 0.000000 0.000000
v -0.629209 0.192700 0.000000
v -0.501852 0.000000 0.289744
v -0.544911 0.192700 0.314604
v -0.289744 0.000000 0.501852
v -0.314604 0.192700 0.544911
v 0.000000 0.000000 0.579489
v 0.000000 0.192700 0.629209
v 0.289744 0.000000 0.501852
v 0.314604 0.192700 0.544911
v 0.501852 0.000000 0.289744
v 0.544911 0.192700 0.314604
v 0.579489 0.000000 0.000000
v 0.629209 0.192700 0.000000
v 0.534394 0.963502 -0.308532
v 0.308532 0.963502 -0.534394
v 0.000000 0.963502 -0.617064
v -0.308532 0.963502 -0.534394
v -0.534394 0.963502 -0.308532
v -0.617065 0.963502 0.000000
v -0.534394 0.963502 0.308532
v -0.308532 0.963502 0.534394
v 0.000000 0.963502 0.617065
v 0.308532 0.963502 0.534394
v 0.534394 0.963502 0.308532
v 0.617065 0.963502 0.000000
v 0.476070 0.754854 -0.274859
v 0.274859 0.754854 -0.476069
v 0.000000 0.754854 -0.549718
v -0.274859 0.754854 -0.476069
v -0.476070 0.754854 -0.274859
v -0.549718 0.754854 0.000000
v -0.476070 0.754854 0.274859
v -0.274859 0.754854 0.476069
v 0.000000 0.754854 0.549718
v 0.274859 0.754854 0.476069
v 0.476070 0.754854 0.274859
v 0.549718 0.754854 0.000000
v 0.000000 0.754854 0.000000
vt 0.511891 0.776891
vt 0.465967 0.719779
vt 0.220935 0.822283
vt 0.223134 0.906777
vt 0.428844 0.656736
vt 0.219595 0.740037
vt 0.401632 0.588908
vt 0.218478 0.658839
vt 0.384999 0.517763
vt 0.217514 0.578162
vt 0.379334 0.444923
vt 0.216745 0.497728
vt 0.384768 0.372066
vt 0.216241 0.417355
vt 0.401176 0.300872
vt 0.216113 0.336863
vt 0.428175 0.232981
vt 0.216600 0.255983
vt 0.465125 0.169948
vt 0.218263 0.174215
vt 0.511121 0.113239
vt 0.222471 0.090548
vt 0.565316 0.066604
vt 0.229983 0.997070
vt 0.611011 0.236125
vt 0.578605 0.180006
vt 0.699527 0.147596
vt 0.667134 0.268523
vt 0.731938 0.268518
vt 0.788057 0.236113
vt 0.820454 0.179989
vt 0.820450 0.115186
vt 0.788044 0.059067
vt 0.731920 0.026669
vt 0.667117 0.026673
vt 0.610998 0.059079
vt 0.578600 0.115203
vt 0.454380 0.829772
vt 0.593642 0.253497
vt 0.442958 0.735299
vt 0.491793 0.795962
vt 0.660778 0.292251
vt 0.403707 0.668621
vt 0.738297 0.292246
vt 0.374977 0.596860
vt 0.805428 0.253482
vt 0.357446 0.521588
vt 0.844183 0.186345
vt 0.351520 0.444530
vt 0.844177 0.108826
vt 0.357335 0.367464
vt 0.805413 0.041695
vt 0.374757 0.292168
vt 0.738277 0.002940
vt 0.403388 0.220375
vt 0.660758 0.002946
vt 0.442613 0.153714
vt 0.593627 0.041710
vt 0.491991 0.093640
vt 0.554872 0.108847
vt 0.551681 0.852033
vt 0.239377 0.821789
vt 0.241745 0.904894
vt 0.238151 0.739923
vt 0.237130 0.658872
vt 0.236219 0.578284
vt 0.235472 0.497936
vt 0.234963 0.417669
vt 0.234798 0.337337
vt 0.235199 0.256744
vt 0.236718 0.175574
vt 0.240775 0.093433
vt 0.250430 0.988190
vt 0.672223 0.350451
vt 0.635443 0.286773
vt 0.672237 0.423988
vt 0.635480 0.487679
vt 0.571803 0.524459
vt 0.498266 0.524473
vt 0.434575 0.487717
vt 0.397794 0.424039
vt 0.397781 0.350502
vt 0.434537 0.286811
vt 0.498215 0.250031
vt 0.571751 0.250017
vt 0.535009 0.387245
vt 0.308574 0.972180
vt 0.298683 0.896933
vt 0.296916 0.103081
vt 0.292905 0.180048
vt 0.291747 0.258868
vt 0.291563 0.338352
vt 0.291818 0.418088
vt 0.292344 0.497950
vt 0.293057 0.577919
vt 0.293883 0.658005
vt 0.294778 0.738172
vt 0.295933 0.818140
vt 0.252595 0.012105
vt 0.309526 0.029731
vt 0.232939 0.002936
vt 0.553083 0.040329
vt 0.007603 0.965476
vt 0.002930 0.025696
vt 0.565415 0.825765
vt 0.011008 0.893773
vt 0.004648 0.100803
vt 0.004156 0.178727
vt 0.003392 0.258086
vt 0.002965 0.338160
vt 0.003022 0.418546
vt 0.003576 0.499004
vt 0.004616 0.579353
vt 0.006124 0.659397
vt 0.008021 0.738863
vt 0.009999 0.817293
vt 0.513631 0.002930
vt 0.511807 0.885991
vt 0.554877 0.186366
vt 0.453731 0.059063
vt 0.400237 0.124683
vt 0.357141 0.197981
vt 0.325650 0.277021
vt 0.306499 0.359929
vt 0.300129 0.444782
vt 0.306687 0.529621
vt 0.326020 0.612482
vt 0.357677 0.691431
vt 0.400896 0.764538
vn 0.848172 -0.202003 -0.489692
vn 0.489692 -0.202003 -0.848172
vn 0.489692 -0.202003 -0.848172
vn 0.848172 -0.202003 -0.489693
vn 0.000000 -0.202003 -0.979385
vn 0.000000 -0.202003 -0.979385
vn -0.489692 -0.202003 -0.848172
vn -0.489692 -0.202003 -0.848172
vn -0.848172 -0.202003 -0.489692
vn -0.848172 -0.202003 -0.489693
vn -0.979385 -0.202003 -0.000000
vn -0.979385 -0.202003 -0.000000
vn -0.848172 -0.202003 0.489692
vn -0.848172 -0.202003 0.489692
vn -0.489693 -0.202003 0.848172
vn -0.489693 -0.202003 0.848172
vn 0.000000 -0.202003 0.979385
vn 0.000000 -0.202003 0.979385
vn 0.489693 -0.202003 0.848172
vn 0.489693 -0.202003 0.848172
vn 0.848172 -0.202003 0.489692
vn 0.848172 -0.202003 0.489692
vn 0.979385 -0.202003 0.000000
vn 0.979385 -0.202003 0.000000
vn 0.000000 -1.000000 0.000000
vn 0.000000 -1.000000 0.000000
vn 0.000000 -1.000000 0.000000
vn 0.000000 -1.000000 0.000000
vn 0.000000 -1.000000 0.000000
vn 0.000000 -1.000000 0.000000
vn 0.000000 -1.000000 0.000000
vn 0.000000 -1.000000 0.000000
vn 0.000000 -1.000000 0.000000
vn 0.000000 -1.000000 0.000000
vn 0.000000 -1.000000 0.000000
vn 0.000000 -1.000000 0.000000
vn 0.000000 -1.000000 0.000000
vn 0.838562 -0.249835 -0.484144
vn 0.484144 -0.249835 -0.838562
vn 0.484144 -0.249835 -0.838562
vn 0.838562 -0.249835 -0.484144
vn 0.000000 -0.249836 -0.968288
vn 0.000000 -0.249836 -0.968288
vn -0.484144 -0.249835 -0.838562
vn -0.484144 -0.249835 -0.838562
vn -0.838562 -0.249835 -0.484144
vn -0.838562 -0.249835 -0.484144
vn -0.968288 -0.249836 0.000000
vn -0.968288 -0.249836 -0.000000
vn -0.838562 -0.249835 0.484144
vn -0.838562 -0.249835 0.484144
vn -0.484144 -0.249834 0.838562
vn -0.484145 -0.249835 0.838562
vn 0.000000 -0.249834 0.968289
vn 0.000000 -0.249834 0.968289
vn 0.484144 -0.249834 0.838562
vn 0.484145 -0.249834 0.838562
vn 0.838562 -0.249835 0.484144
vn 0.838562 -0.249835 0.484144
vn 0.968288 -0.249835 0.000000
vn 0.968288 -0.249836 -0.000000
vn 0.000000 -1.000000 0.000000
vn 0.000000 -1.000000 0.000000
vn 0.000000 -1.000000 0.000000
vn 0.000000 -1.000000 0.000000
vn -0.235866 0.942727 0.235866
vn -0.235866 0.942727 0.235866
vn -0.235866 0.942727 0.235866
vn -0.235866 0.942727 0.235866
vn 0.000000 -1.000000 0.000000
vn 0.000000 -1.000000 0.000000
vn 0.000000 -1.000000 0.000000
vn 0.000000 -1.000000 0.000000
vn -0.086333 0.942727 0.322199
vn -0.086333 0.942727 0.322199
vn -0.086333 0.942727 0.322199
vn -0.086333 0.942727 0.322199
vn 0.000000 -1.000000 0.000000
vn 0.000000 -1.000000 0.000000
vn 0.000000 -1.000000 0.000000
vn 0.000000 -1.000000 0.000000
vn 0.086333 0.942727 0.322199
vn 0.086333 0.942727 0.322199
vn 0.086333 0.942727 0.322199
vn 0.086333 0.942727 0.322199
vn 0.000000 -1.000000 0.000000
vn 0.000000 -1.000000 0.000000
vn 0.000000 -1.000000 0.000000
vn 0.000000 -1.000000 0.000000
vn 0.235866 0.942727 0.235866
vn 0.235866 0.942727 0.235866
vn 0.235866 0.942727 0.235866
vn 0.235866 0.942727 0.235866
vn 0.000000 -1.000000 0.000000
vn 0.000000 -1.000000 0.000000
vn 0.000000 -1.000000 0.000000
vn 0.000000 -1.000000 0.000000
vn 0.322199 0.942727 0.086333
vn 0.322199 0.942727 0.086333
vn 0.322199 0.942727 0.086333
vn 0.322199 0.942727 0.086333
vn 0.000000 -1.000000 0.000000
vn 0.000000 -1.000000 0.000000
vn 0.000000 -1.000000 0.000000
vn 0.000000 -1.000000 0.000000
vn 0.322199 0.942727 -0.086333
vn 0.322199 0.942727 -0.086333
vn 0.322199 0.942727 -0.086333
vn 0.322199 0.942727 -0.086333
vn 0.000000 -1.000000 0.000000
vn 0.000000 -1.000000 0.000000
vn 0.000000 -1.000000 0.000000
vn 0.000000 -1.000000 0.000000
vn 0.235866 0.942727 -0.235866
vn 0.235866 0.942727 -0.235866
vn 0.235866 0.942727 -0.235866
vn 0.235866 0.942727 -0.235866
vn 0.000000 -1.000000 0.000000
vn 0.000000 -1.000000 0.000000
vn 0.000000 -1.000000 0.000000
vn 0.000000 -1.000000 0.000000
vn 0.086333 0.942727 -0.322199
vn 0.086333 0.942727 -0.322199
vn 0.086333 0.942727 -0.322199
vn 0.086333 0.942727 -0.322199
vn 0.000000 -1.000000 0.000000
vn 0.000000 -1.000000 0.000000
vn 0.000000 -1.000000 0.000000
vn 0.000000 -1.000000 0.000000
vn -0.086333 0.942727 -0.322199
vn -0.086333 0.942727 -0.322199
vn -0.086333 0.942727 -0.322199
vn -0.086333 0.942727 -0.322199
vn 0.000000 -1.000000 0.000000
vn 0.000000 -1.000000 0.000000
vn 0.000000 -1.000000 0.000000
vn 0.000000 -1.000000 0.000000
vn -0.235866 0.942727 -0.235866
vn -0.235866 0.942727 -0.235866
vn -0.235866 0.942727 -0.235866
vn -0.235866 0.942727 -0.235866
vn 0.000000 -1.000000 0.000000
vn 0.000000 -1.000000 0.000000
vn 0.000000 -1.000000 0.000000
vn 0.000000 -1.000000 0.000000
vn -0.322199 0.942727 -0.086333
vn -0.322199 0.942727 -0.086333
vn -0.322199 0.942727 -0.086333
vn -0.322199 0.942727 -0.086333
vn 0.000000 -1.000000 0.000000
vn 0.000000 -1.000000 0.000000
vn 0.000000 -1.000000 0.000000
vn 0.000000 -1.000000 0.000000
vn -0.322199 0.942727 0.086333
vn -0.322199 0.942727 0.086333
vn -0.322199 0.942727 0.086333
vn -0.322199 0.942727 0.086333
vn 0.000000 1.000000 0.000001
vn 0.000000 1.000000 0.000001
vn 0.000000 1.000000 0.000001
vn 0.000000 1.000000 0.000001
vn 0.000000 1.000000 -0.000001
vn 0.000000 1.000000 -0.000001
vn 0.000000 1.000000 -0.000001
vn 0.000000 1.000000 -0.000001
vn 0.000000 1.000000 -0.000001
vn 0.000000 1.000000 -0.000001
vn 0.000000 1.000000 -0.000001
vn 0.000000 1.000000 -0.000001
vn 0.000000 1.000000 0.000000
vn 0.000000 1.000000 0.000000
vn 0.000000 1.000000 0.000000
vn 0.000000 1.000000 0.000000
vn 0.000000 1.000000 -0.000000
vn 0.000000 1.000000 -0.000000
vn 0.000000 1.000000 -0.000000
vn 0.000000 1.000000 -0.000000
vn 0.000000 1.000000 0.000000
vn 0.000000 1.000000 0.000000
vn 0.000000 1.000000 0.000000
vn 0.000000 1.000000 0.000000
vn 0.000000 1.000000 -0.000001
vn 0.000000 1.000000 -0.000001
vn 0.000000 1.000000 -0.000001
vn 0.000000 1.000000 -0.000001
vn 0.000000 1.000000 0.000001
vn 0.000000 1.000000 0.000001
vn 0.000000 1.000000 0.000001
vn 0.000000 1.000000 0.000001
vn 0.000000 1.000000 0.000001
vn 0.000000 1.000000 0.000001
vn 0.000000 1.000000 0.000001
vn 0.000000 1.000000 0.000001
vn 0.000000 1.000000 -0.000000
vn 0.000000 1.000000 -0.000000
vn 0.000000 1.000000 -0.000000
vn 0.000000 1.000000 -0.000000
vn 0.000000 1.000000 0.000000
vn 0.000000 1.000000 0.000000
vn 0.000000 1.000000 0.000000
vn 0.000000 1.000000 0.000000
vn 0.000000 1.000000 -0.000000
vn 0.000000 1.000000 -0.000000
vn 0.000000 1.000000 -0.000000
vn 0.000000 1.000000 -0.000000
vn -0.824157 0.307172 0.475827
vn -0.475826 0.307172 0.824157
vn -0.475827 0.307172 0.824157
vn -0.824156 0.307172 0.475827
vn 0.000000 0.307173 0.951654
vn 0.000000 0.307173 0.951654
vn 0.475826 0.307172 0.824157
vn 0.475827 0.307172 0.824157
vn 0.824157 0.307172 0.475827
vn 0.824156 0.307172 0.475827
vn 0.951654 0.307172 -0.000000
vn 0.951654 0.307172 -0.000000
vn 0.824156 0.307172 -0.475827
vn 0.824156 0.307172 -0.475827
vn 0.475827 0.307173 -0.824156
vn 0.475827 0.307173 -0.824156
vn 0.000000 0.307173 -0.951654
vn 0.000000 0.307173 -0.951654
vn -0.475827 0.307173 -0.824156
vn -0.475827 0.307173 -0.824156
vn -0.824156 0.307172 -0.475827
vn -0.824156 0.307172 -0.475827
vn -0.951654 0.307172 0.000000
vn -0.951654 0.307172 0.000000
vn 0.000000 1.000000 0.000000
vn 0.000000 1.000000 0.000000
vn 0.000000 1.000000 0.000000
vn 0.000000 1.000000 0.000000
vn 0.000000 1.000000 0.000000
vn 0.000000 1.000000 0.000000
vn 0.000000 1.000000 0.000000
vn 0.000000 1.000000 0.000000
vn 0.000000 1.000000 0.000000
vn 0.000000 1.000000 0.000000
vn 0.000000 1.000000 0.000000
vn 0.000000 1.000000 0.000000
vn 0.000000 1.000000 0.000000
vn 0.000000 1.000000 0.000000
vn 0.000000 1.000000 0.000000
vn 0.000000 1.000000 0.000000
vn 0.000000 1.000000 0.000000
vn 0.000000 1.000000 0.000000
vn 0.000000 1.000000 0.000000
vn 0.000000 1.000000 0.000000
vn 0.000000 1.000000 0.000000
vn 0.000000 1.000000 0.000000
vn 0.000000 1.000000 0.000000
vn 0.000000 1.000000 0.000000
vn 0.000000 1.000000 0.000000
vn 0.000000 1.000000 0.000000
vn 0.000000 1.000000 0.000000
vn 0.000000 1.000000 -0.000000
vn 0.000000 1.000000 -0.000000
vn 0.000000 1.000000 -0.000000
vn 0.000000 1.000000 0.000000
vn 0.000000 1.000000 0.000000
vn 0.000000 1.000000 0.000000
vn 0.000000 1.000000 0.000000
vn 0.000000 1.000000 0.000000
vn 0.000000 1.000000 0.000000
s 1
g Pot
usemtl initialShadingGroup
f 26/106/1 27/116/2 14/3/3 13/4/4
f 27/116/2 28/115/5 15/6/6 14/3/3
f 28/115/5 29/114/7 16/8/8 15/6/6
f 29/114/7 30/113/9 17/10/10 16/8/8
f 30/113/9 31/112/11 18/12/12 17/10/10
f 31/112/11 32/111/13 19/14/14 18/12/12
f 32/111/13 33/110/15 20/16/16 19/14/14
f 33/110/15 34/109/17 21/18/18 20/16/16
f 34/109/17 35/108/19 22/20/20 21/18/18
f 35/108/19 36/107/21 23/22/22 22/20/20
f 36/107/21 37/104/23 24/101/24 23/22/22
f 37/103/23 26/106/1 13/4/4 24/24/24
s 2
f 2/25/25 1/26/26 25/27/27
f 3/28/28 2/25/25 25/27/27
f 4/29/29 3/28/28 25/27/27
f 5/30/30 4/29/29 25/27/27
f 6/31/31 5/30/30 25/27/27
f 7/32/32 6/31/31 25/27/27
f 8/33/33 7/32/32 25/27/27
f 9/34/34 8/33/33 25/27/27
f 10/35/35 9/34/34 25/27/27
f 11/36/36 10/35/35 25/27/27
f 12/37/37 11/36/36 25/27/27
f 1/26/26 12/37/37 25/27/27
s 3
f 38/38/38 39/129/39 40/40/40 41/41/41
f 39/129/39 42/128/42 43/43/43 40/40/40
f 42/128/42 44/127/44 45/45/45 43/43/43
f 44/127/44 46/126/46 47/47/47 45/45/45
f 46/126/46 48/125/48 49/49/49 47/47/47
f 48/125/48 50/124/50 51/51/51 49/49/49
f 50/124/50 52/123/52 53/53/53 51/51/51
f 52/123/52 54/122/54 55/55/55 53/53/53
f 54/122/54 56/121/56 57/57/57 55/55/55
f 56/121/56 58/120/58 59/59/59 57/57/57
f 58/120/58 60/117/60 61/102/61 59/59/59
f 60/118/60 38/38/38 41/41/41 61/61/61
s off
f 1/26/62 2/25/63 39/39/64 38/119/65
f 27/2/66 26/1/67 41/41/68 40/40/69
f 2/25/70 3/28/71 42/42/72 39/39/73
f 28/5/74 27/2/75 40/40/76 43/43/77
f 3/28/78 4/29/79 44/44/80 42/42/81
f 29/7/82 28/5/83 43/43/84 45/45/85
f 4/29/86 5/30/87 46/46/88 44/44/89
f 30/9/90 29/7/91 45/45/92 47/47/93
f 5/30/94 6/31/95 48/48/96 46/46/97
f 31/11/98 30/9/99 47/47/100 49/49/101
f 6/31/102 7/32/103 50/50/104 48/48/105
f 32/13/106 31/11/107 49/49/108 51/51/109
f 7/32/110 8/33/111 52/52/112 50/50/113
f 33/15/114 32/13/115 51/51/116 53/53/117
f 8/33/118 9/34/119 54/54/120 52/52/121
f 34/17/122 33/15/123 53/53/124 55/55/125
f 9/34/126 10/35/127 56/56/128 54/54/129
f 35/19/130 34/17/131 55/55/132 57/57/133
f 10/35/134 11/36/135 58/58/136 56/56/137
f 36/21/138 35/19/139 57/57/140 59/59/141
f 11/36/142 12/37/143 60/60/144 58/58/145
f 37/23/146 36/21/147 59/59/148 61/102/149
f 12/37/150 1/26/151 38/119/152 60/60/153
f 26/1/154 37/105/155 61/61/156 41/41/157
f 13/4/158 14/3/159 63/62/160 62/63/161
f 14/3/162 15/6/163 64/64/164 63/62/165
f 15/6/166 16/8/167 65/65/168 64/64/169
f 16/8/170 17/10/171 66/66/172 65/65/173
f 17/10/174 18/12/175 67/67/176 66/66/177
f 18/12/178 19/14/179 68/68/180 67/67/181
f 19/14/182 20/16/183 69/69/184 68/68/185
f 20/16/186 21/18/187 70/70/188 69/69/189
f 21/18/190 22/20/191 71/71/192 70/70/193
f 22/20/194 23/22/195 72/72/196 71/71/197
f 23/22/198 24/101/199 73/99/200 72/72/201
f 24/24/202 13/4/203 62/63/204 73/73/205
s 4
f 62/63/206 63/62/207 75/98/208 74/88/209
f 63/62/207 64/64/210 76/97/211 75/98/208
f 64/64/210 65/65/212 77/96/213 76/97/211
f 65/65/212 66/66/214 78/95/215 77/96/213
f 66/66/214 67/67/216 79/94/217 78/95/215
f 67/67/216 68/68/218 80/93/219 79/94/217
f 68/68/218 69/69/220 81/92/221 80/93/219
f 69/69/220 70/70/222 82/91/223 81/92/221
f 70/70/222 71/71/224 83/90/225 82/91/223
f 71/71/224 72/72/226 84/89/227 83/90/225
f 72/72/226 73/99/228 85/100/229 84/89/227
f 73/73/228 62/63/206 74/88/209 85/87/229
s off
f 74/75/230 75/74/231 86/86/232
f 75/74/233 76/76/234 86/86/235
f 76/76/236 77/77/237 86/86/238
f 77/77/239 78/78/240 86/86/241
f 78/78/242 79/79/243 86/86/244
f 79/79/245 80/80/246 86/86/247
f 80/80/248 81/81/249 86/86/250
f 81/81/251 82/82/252 86/86/253
f 82/82/254 83/83/255 86/86/256
f 83/83/257 84/84/258 86/86/259
f 84/84/260 85/85/261 86/86/262
f 85/85/263 74/75/264 86/86/265
