# This file uses centimeters as units for non-parametric coordinates.

mtllib Tennis_Ball.mtl
g default
v 0.037341 -0.142055 -0.027130
v 0.014263 -0.142055 -0.043898
v -0.014263 -0.142055 -0.043898
v -0.037341 -0.142055 -0.027130
v -0.046157 -0.142055 0.000000
v -0.037341 -0.142055 0.027130
v -0.014263 -0.142055 0.043898
v 0.014263 -0.142055 0.043898
v 0.037341 -0.142055 0.027130
v 0.046157 -0.142055 0.000000
v 0.071028 -0.120840 -0.051605
v 0.027130 -0.120840 -0.083498
v -0.027130 -0.120840 -0.083498
v -0.071028 -0.120840 -0.051605
v -0.087795 -0.120840 0.000000
v -0.071028 -0.120840 0.051605
v -0.027130 -0.120840 0.083498
v 0.027130 -0.120840 0.083498
v 0.071028 -0.120840 0.051605
v 0.087795 -0.120840 0.000000
v 0.097761 -0.087795 -0.071028
v 0.037341 -0.087795 -0.114925
v -0.037341 -0.087795 -0.114925
v -0.097761 -0.087795 -0.071028
v -0.120840 -0.087795 0.000000
v -0.097761 -0.087795 0.071028
v -0.037341 -0.087795 0.114925
v 0.037341 -0.087795 0.114925
v 0.097761 -0.087795 0.071028
v 0.120840 -0.087795 0.000000
v 0.114925 -0.046157 -0.083498
v 0.043898 -0.046157 -0.135103
v -0.043898 -0.046157 -0.135103
v -0.114925 -0.046157 -0.083498
v -0.142055 -0.046157 0.000000
v -0.114925 -0.046157 0.083498
v -0.043898 -0.046157 0.135103
v 0.043898 -0.046157 0.135103
v 0.114925 -0.046157 0.083498
v 0.142055 -0.046157 0.000000
v 0.120840 0.000000 -0.087795
v 0.046157 0.000000 -0.142055
v -0.046157 0.000000 -0.142055
v -0.120840 0.000000 -0.087795
v -0.149366 0.000000 0.000000
v -0.120840 0.000000 0.087795
v -0.046157 0.000000 0.142055
v 0.046157 0.000000 0.142055
v 0.120840 0.000000 0.087795
v 0.149366 0.000000 0.000000
v 0.114925 0.046157 -0.083498
v 0.043898 0.046157 -0.135103
v -0.043898 0.046157 -0.135103
v -0.114925 0.046157 -0.083498
v -0.142055 0.046157 0.000000
v -0.114925 0.046157 0.083498
v -0.043898 0.046157 0.135103
v 0.043898 0.046157 0.135103
v 0.114925 0.046157 0.083498
v 0.142055 0.046157 0.000000
v 0.097761 0.087795 -0.071028
v 0.037341 0.087795 -0.114925
v -0.037341 0.087795 -0.114925
v -0.097761 0.087795 -0.071028
v -0.120840 0.087795 0.000000
v -0.097761 0.087795 0.071028
v -0.037341 0.087795 0.114925
v 0.037341 0.087795 0.114925
v 0.097761 0.087795 0.071028
v 0.120840 0.087795 0.000000
v 0.071028 0.120840 -0.051605
v 0.027130 0.120840 -0.083498
v -0.027130 0.120840 -0.083498
v -0.071028 0.120840 -0.051605
v -0.087795 0.120840 0.000000
v -0.071028 0.120840 0.051605
v -0.027130 0.120840 0.083498
v 0.027130 0.120840 0.083498
v 0.071028 0.120840 0.051605
v 0.087795 0.120840 0.000000
v 0.037341 0.142055 -0.027130
v 0.014263 0.142055 -0.043898
v -0.014263 0.142055 -0.043898
v -0.037341 0.142055 -0.027130
v -0.046157 0.142055 0.000000
v -0.037341 0.142055 0.027130
v -0.014263 0.142055 0.043898
v 0.014263 0.142055 0.043898
v 0.037341 0.142055 0.027130
v 0.046157 0.142055 0.000000
v 0.000000 -0.149366 0.000000
v 0.000000 0.149366 0.000000
vt 0.575802 0.144899
vt 0.626974 0.191687
vt 0.693862 0.220414
vt 0.764180 0.225114
vt 0.823671 0.197347
vt 0.575759 0.144891
vt 0.626936 0.191674
vt 0.693827 0.220393
vt 0.764146 0.225085
vt 0.823634 0.197312
vt 0.473875 0.192241
vt 0.567063 0.264681
vt 0.677558 0.313891
vt 0.795843 0.335956
vt 0.415619 0.094356
vt 0.473837 0.192245
vt 0.567033 0.264674
vt 0.677534 0.313871
vt 0.795821 0.335923
vt 0.415668 0.094345
vt 0.388043 0.255688
vt 0.514322 0.339085
vt 0.653234 0.401799
vt 0.800905 0.444018
vt 0.285824 0.141583
vt 0.388012 0.255701
vt 0.514300 0.339084
vt 0.653219 0.401782
vt 0.800895 0.443985
vt 0.285868 0.141558
vt 0.317966 0.333016
vt 0.467490 0.416484
vt 0.622772 0.486901
vt 0.784310 0.547667
vt 0.176283 0.224557
vt 0.317943 0.333037
vt 0.467476 0.416488
vt 0.622767 0.486888
vt 0.784312 0.547636
vt 0.176318 0.224520
vt 0.264416 0.421689
vt 0.426123 0.496902
vt 0.586785 0.569827
vt 0.748491 0.645040
vt 0.096397 0.336849
vt 0.264403 0.421717
vt 0.426118 0.496911
vt 0.586789 0.569818
vt 0.748503 0.645012
vt 0.096420 0.336803
vt 0.228597 0.519062
vt 0.390135 0.579828
vt 0.545418 0.650245
vt 0.694941 0.733714
vt 0.053798 0.469495
vt 0.228595 0.519094
vt 0.390140 0.579841
vt 0.545431 0.650240
vt 0.694963 0.733692
vt 0.053805 0.469443
vt 0.212002 0.622710
vt 0.359673 0.664930
vt 0.498585 0.727644
vt 0.624863 0.811042
vt 0.053809 0.611474
vt 0.212012 0.622744
vt 0.359688 0.664946
vt 0.498607 0.727645
vt 0.624894 0.811028
vt 0.053800 0.611421
vt 0.217064 0.730772
vt 0.335348 0.752837
vt 0.445844 0.802048
vt 0.539030 0.874488
vt 0.099179 0.749951
vt 0.217086 0.730806
vt 0.335373 0.752857
vt 0.445874 0.802055
vt 0.539069 0.874484
vt 0.099154 0.749904
vt 0.248725 0.841614
vt 0.319043 0.846313
vt 0.385931 0.875041
vt 0.437102 0.921830
vt 0.189273 0.869417
vt 0.248761 0.841644
vt 0.319080 0.846335
vt 0.385971 0.875055
vt 0.437148 0.921838
vt 0.189234 0.869380
vt 0.697898 0.113905
vt 0.315055 0.952844
vt 0.457779 0.980810
vt 0.555176 0.085924
vt 0.597287 0.972373
vt 0.727082 0.925147
vt 0.836623 0.842173
vt 0.916509 0.729881
vt 0.959109 0.597235
vt 0.959098 0.455256
vt 0.913728 0.316778
vt 0.457727 0.980804
vt 0.315006 0.952822
vt 0.697852 0.113884
vt 0.555127 0.085919
vt 0.597236 0.972384
vt 0.727037 0.925172
vt 0.836588 0.842211
vt 0.916487 0.729927
vt 0.959102 0.597286
vt 0.959107 0.455307
vt 0.913752 0.316823
vn 0.323957 -0.916326 -0.235368
vn 0.123740 -0.916326 -0.380834
vn 0.195836 -0.773548 -0.602721
vn 0.512705 -0.773548 -0.372502
vn -0.123740 -0.916326 -0.380834
vn -0.195836 -0.773548 -0.602721
vn -0.323957 -0.916326 -0.235368
vn -0.512705 -0.773548 -0.372502
vn -0.400432 -0.916326 -0.000000
vn -0.633738 -0.773548 0.000000
vn -0.323956 -0.916326 0.235368
vn -0.512705 -0.773548 0.372502
vn -0.123740 -0.916326 0.380834
vn -0.195836 -0.773548 0.602721
vn 0.123740 -0.916326 0.380834
vn 0.195836 -0.773548 0.602721
vn 0.323957 -0.916326 0.235368
vn 0.512705 -0.773548 0.372502
vn 0.400432 -0.916326 0.000000
vn 0.633738 -0.773548 0.000000
vn 0.256443 -0.557962 -0.789250
vn 0.671376 -0.557962 -0.487783
vn -0.256443 -0.557962 -0.789250
vn -0.671376 -0.557962 -0.487783
vn -0.829867 -0.557962 0.000000
vn -0.671376 -0.557962 0.487783
vn -0.256443 -0.557962 0.789250
vn 0.256443 -0.557962 0.789250
vn 0.671376 -0.557962 0.487783
vn 0.829867 -0.557962 0.000000
vn 0.295556 -0.291930 -0.909628
vn 0.773776 -0.291930 -0.562181
vn -0.295556 -0.291930 -0.909628
vn -0.773776 -0.291930 -0.562181
vn -0.956440 -0.291930 0.000000
vn -0.773776 -0.291930 0.562181
vn -0.295556 -0.291930 0.909628
vn 0.295556 -0.291930 0.909628
vn 0.773776 -0.291930 0.562181
vn 0.956440 -0.291930 0.000000
vn 0.309017 0.000000 -0.951057
vn 0.809017 0.000000 -0.587785
vn -0.309017 0.000000 -0.951056
vn -0.809017 0.000000 -0.587785
vn -1.000000 0.000000 0.000000
vn -0.809017 -0.000000 0.587785
vn -0.309017 -0.000000 0.951057
vn 0.309017 -0.000000 0.951057
vn 0.809017 -0.000000 0.587785
vn 1.000000 0.000000 0.000000
vn 0.295556 0.291930 -0.909628
vn 0.773776 0.291930 -0.562181
vn -0.295556 0.291930 -0.909628
vn -0.773776 0.291930 -0.562181
vn -0.956440 0.291930 0.000000
vn -0.773776 0.291930 0.562181
vn -0.295556 0.291930 0.909628
vn 0.295556 0.291930 0.909628
vn 0.773776 0.291930 0.562181
vn 0.956440 0.291930 0.000000
vn 0.256443 0.557962 -0.789250
vn 0.671376 0.557962 -0.487783
vn -0.256443 0.557962 -0.789250
vn -0.671376 0.557962 -0.487783
vn -0.829867 0.557962 0.000000
vn -0.671376 0.557962 0.487783
vn -0.256443 0.557962 0.789250
vn 0.256443 0.557962 0.789250
vn 0.671376 0.557962 0.487783
vn 0.829866 0.557962 0.000000
vn 0.195836 0.773548 -0.602721
vn 0.512705 0.773548 -0.372502
vn -0.195836 0.773548 -0.602721
vn -0.512705 0.773548 -0.372502
vn -0.633738 0.773548 0.000000
vn -0.512705 0.773548 0.372502
vn -0.195836 0.773548 0.602721
vn 0.195836 0.773548 0.602721
vn 0.512705 0.773548 0.372502
vn 0.633738 0.773548 0.000000
vn 0.123740 0.916326 -0.380834
vn 0.323957 0.916326 -0.235368
vn -0.123740 0.916326 -0.380834
vn -0.323956 0.916326 -0.235368
vn -0.400432 0.916326 0.000000
vn -0.323956 0.916326 0.235368
vn -0.123740 0.916326 0.380834
vn 0.123740 0.916326 0.380834
vn 0.323957 0.916326 0.235368
vn 0.400432 0.916326 -0.000000
vn 0.000000 -1.000000 -0.000000
vn 0.000000 1.000000 -0.000000
s 1
g Tennis_Ball
usemtl initialShadingGroup
f 1/1/1 2/2/2 12/12/3 11/11/4
f 2/2/2 3/3/5 13/13/6 12/12/3
f 3/3/5 4/4/7 14/14/8 13/13/6
f 4/4/7 5/5/9 15/112/10 14/14/8
f 5/105/9 6/6/11 16/16/12 15/15/10
f 6/6/11 7/7/13 17/17/14 16/16/12
f 7/7/13 8/8/15 18/18/16 17/17/14
f 8/8/15 9/9/17 19/19/18 18/18/16
f 9/9/17 10/10/19 20/101/20 19/19/18
f 10/94/19 1/1/1 11/11/4 20/20/20
f 11/11/4 12/12/3 22/22/21 21/21/22
f 12/12/3 13/13/6 23/23/23 22/22/21
f 13/13/6 14/14/8 24/24/24 23/23/23
f 14/14/8 15/112/10 25/111/25 24/24/24
f 15/15/10 16/16/12 26/26/26 25/25/25
f 16/16/12 17/17/14 27/27/27 26/26/26
f 17/17/14 18/18/16 28/28/28 27/27/27
f 18/18/16 19/19/18 29/29/29 28/28/28
f 19/19/18 20/101/20 30/100/30 29/29/29
f 20/20/20 11/11/4 21/21/22 30/30/30
f 21/21/22 22/22/21 32/32/31 31/31/32
f 22/22/21 23/23/23 33/33/33 32/32/31
f 23/23/23 24/24/24 34/34/34 33/33/33
f 24/24/24 25/111/25 35/110/35 34/34/34
f 25/25/25 26/26/26 36/36/36 35/35/35
f 26/26/26 27/27/27 37/37/37 36/36/36
f 27/27/27 28/28/28 38/38/38 37/37/37
f 28/28/28 29/29/29 39/39/39 38/38/38
f 29/29/29 30/100/30 40/99/40 39/39/39
f 30/30/30 21/21/22 31/31/32 40/40/40
f 31/31/32 32/32/31 42/42/41 41/41/42
f 32/32/31 33/33/33 43/43/43 42/42/41
f 33/33/33 34/34/34 44/44/44 43/43/43
f 34/34/34 35/110/35 45/109/45 44/44/44
f 35/35/35 36/36/36 46/46/46 45/45/45
f 36/36/36 37/37/37 47/47/47 46/46/46
f 37/37/37 38/38/38 48/48/48 47/47/47
f 38/38/38 39/39/39 49/49/49 48/48/48
f 39/39/39 40/99/40 50/98/50 49/49/49
f 40/40/40 31/31/32 41/41/42 50/50/50
f 41/41/42 42/42/41 52/52/51 51/51/52
f 42/42/41 43/43/43 53/53/53 52/52/51
f 43/43/43 44/44/44 54/54/54 53/53/53
f 44/44/44 45/109/45 55/108/55 54/54/54
f 45/45/45 46/46/46 56/56/56 55/55/55
f 46/46/46 47/47/47 57/57/57 56/56/56
f 47/47/47 48/48/48 58/58/58 57/57/57
f 48/48/48 49/49/49 59/59/59 58/58/58
f 49/49/49 50/98/50 60/97/60 59/59/59
f 50/50/50 41/41/42 51/51/52 60/60/60
f 51/51/52 52/52/51 62/62/61 61/61/62
f 52/52/51 53/53/53 63/63/63 62/62/61
f 53/53/53 54/54/54 64/64/64 63/63/63
f 54/54/54 55/108/55 65/107/65 64/64/64
f 55/55/55 56/56/56 66/66/66 65/65/65
f 56/56/56 57/57/57 67/67/67 66/66/66
f 57/57/57 58/58/58 68/68/68 67/67/67
f 58/58/58 59/59/59 69/69/69 68/68/68
f 59/59/59 60/97/60 70/96/70 69/69/69
f 60/60/60 51/51/52 61/61/62 70/70/70
f 61/61/62 62/62/61 72/72/71 71/71/72
f 62/62/61 63/63/63 73/73/73 72/72/71
f 63/63/63 64/64/64 74/74/74 73/73/73
f 64/64/64 65/107/65 75/106/75 74/74/74
f 65/65/65 66/66/66 76/76/76 75/75/75
f 66/66/66 67/67/67 77/77/77 76/76/76
f 67/67/67 68/68/68 78/78/78 77/77/77
f 68/68/68 69/69/69 79/79/79 78/78/78
f 69/69/69 70/96/70 80/95/80 79/79/79
f 70/70/70 61/61/62 71/71/72 80/80/80
f 71/71/72 72/72/71 82/82/81 81/81/82
f 72/72/71 73/73/73 83/83/83 82/82/81
f 73/73/73 74/74/74 84/84/84 83/83/83
f 74/74/74 75/106/75 85/102/85 84/84/84
f 75/75/75 76/76/76 86/86/86 85/85/85
f 76/76/76 77/77/77 87/87/87 86/86/86
f 77/77/77 78/78/78 88/88/88 87/87/87
f 78/78/78 79/79/79 89/89/89 88/88/88
f 79/79/79 80/95/80 90/93/90 89/89/89
f 80/80/80 71/71/72 81/81/82 90/90/90
f 2/2/2 1/1/1 91/91/91
f 3/3/5 2/2/2 91/91/91
f 4/4/7 3/3/5 91/91/91
f 5/5/9 4/4/7 91/91/91
f 6/6/11 5/105/9 91/104/91
f 7/7/13 6/6/11 91/104/91
f 8/8/15 7/7/13 91/104/91
f 9/9/17 8/8/15 91/104/91
f 10/10/19 9/9/17 91/104/91
f 1/1/1 10/94/19 91/91/91
f 81/81/82 82/82/81 92/103/92
f 82/82/81 83/83/83 92/103/92
f 83/83/83 84/84/84 92/103/92
f 84/84/84 85/102/85 92/103/92
f 85/85/85 86/86/86 92/92/92
f 86/86/86 87/87/87 92/92/92
f 87/87/87 88/88/88 92/92/92
f 88/88/88 89/89/89 92/92/92
f 89/89/89 90/93/90 92/92/92
f 90/90/90 81/81/82 92/103/92
