# This file uses centimeters as units for non-parametric coordinates.

mtllib Wallthing.mtl
g default
v 4.782373 0.707942 -4.669976
v 9.589062 0.707942 -4.669976
v 4.782373 0.707942 -5.100678
v 9.589062 0.707942 -5.100678
v 4.782373 -0.058743 -5.100678
v 9.589062 -0.058743 -5.100678
v 4.782373 -0.058743 -4.669976
v 9.589062 -0.058743 -4.669976
v -9.543903 0.707942 -4.669976
v -4.737215 0.707942 -4.669976
v -9.543903 0.707942 -5.100678
v -4.737215 0.707942 -5.100678
v -9.543903 -0.058743 -5.100678
v -4.737215 -0.058743 -5.100678
v -9.543903 -0.058743 -4.669976
v -4.737215 -0.058743 -4.669976
vt 0.143109 0.272819
vt 0.856824 0.272656
vt 0.143124 0.336771
vt 0.856838 0.336608
vt 0.143150 0.450611
vt 0.856864 0.450448
vt 0.143165 0.514563
vt 0.856879 0.514400
vt 0.143191 0.628403
vt 0.856905 0.628240
vt 0.970664 0.272630
vt 0.970678 0.336582
vt 0.029269 0.272845
vt 0.029284 0.336797
vt 0.143109 0.272819
vt 0.856824 0.272655
vt 0.856838 0.336608
vt 0.143124 0.336771
vt 0.856864 0.450448
vt 0.143150 0.450611
vt 0.856879 0.514400
vt 0.143165 0.514564
vt 0.856905 0.628240
vt 0.143191 0.628404
vt 0.970664 0.272629
vt 0.970678 0.336582
vt 0.029269 0.272845
vt 0.029284 0.336797
vn 0.000000 1.000000 0.000000
vn 0.000000 1.000000 0.000000
vn 0.000000 1.000000 0.000000
vn 0.000000 1.000000 0.000000
vn 0.000000 0.000000 -1.000000
vn 0.000000 0.000000 -1.000000
vn 0.000000 0.000000 -1.000000
vn 0.000000 0.000000 -1.000000
vn 0.000000 -1.000000 0.000000
vn 0.000000 -1.000000 0.000000
vn 0.000000 -1.000000 0.000000
vn 0.000000 -1.000000 0.000000
vn 0.000000 0.000000 1.000000
vn 0.000000 0.000000 1.000000
vn 0.000000 0.000000 1.000000
vn 0.000000 0.000000 1.000000
vn 1.000000 0.000000 0.000000
vn 1.000000 0.000000 0.000000
vn 1.000000 0.000000 0.000000
vn 1.000000 0.000000 0.000000
vn -1.000000 0.000000 0.000000
vn -1.000000 0.000000 0.000000
vn -1.000000 0.000000 0.000000
vn -1.000000 0.000000 0.000000
vn 0.000000 1.000000 0.000000
vn 0.000000 1.000000 0.000000
vn 0.000000 1.000000 0.000000
vn 0.000000 1.000000 0.000000
vn 0.000000 0.000000 -1.000000
vn 0.000000 0.000000 -1.000000
vn 0.000000 0.000000 -1.000000
vn 0.000000 0.000000 -1.000000
vn 0.000000 -1.000000 0.000000
vn 0.000000 -1.000000 0.000000
vn 0.000000 -1.000000 0.000000
vn 0.000000 -1.000000 0.000000
vn 0.000000 0.000000 1.000000
vn 0.000000 0.000000 1.000000
vn 0.000000 0.000000 1.000000
vn 0.000000 0.000000 1.000000
vn 1.000000 0.000000 0.000000
vn 1.000000 0.000000 0.000000
vn 1.000000 0.000000 0.000000
vn 1.000000 0.000000 0.000000
vn -1.000000 0.000000 0.000000
vn -1.000000 0.000000 0.000000
vn -1.000000 0.000000 0.000000
vn -1.000000 0.000000 0.000000
s off
g WallThing
usemtl initialShadingGroup
f 1/1/1 2/2/2 4/4/3 3/3/4
f 3/3/5 4/4/6 6/6/7 5/5/8
f 5/5/9 6/6/10 8/8/11 7/7/12
f 7/7/13 8/8/14 2/10/15 1/9/16
f 2/2/17 8/11/18 6/12/19 4/4/20
f 7/13/21 1/1/22 3/3/23 5/14/24
f 9/15/25 10/16/26 12/17/27 11/18/28
f 11/18/29 12/17/30 14/19/31 13/20/32
f 13/20/33 14/19/34 16/21/35 15/22/36
f 15/22/37 16/21/38 10/23/39 9/24/40
f 10/16/41 16/25/42 14/26/43 12/17/44
f 15/27/45 9/15/46 11/18/47 13/28/48
